<svg width="423" height="152" viewBox="0 0 423 152" fill="none" xmlns="http://www.w3.org/2000/svg">
<g filter="url(#filter0_b_332_120)">
<path d="M0 152L0 89C0 39.8467 39.8467 0 89 0L423 0V152L0 152Z" fill="white" fill-opacity="0.1"/>
</g>
<g filter="url(#filter1_b_332_120)">
<mask id="path-2-inside-1_332_120" fill="white">
<path d="M22 152L22 112C22 62.2944 62.2944 22 112 22L423 22V152L22 152Z"/>
</mask>
<path d="M22 152L22 112C22 62.2944 62.2944 22 112 22L423 22V152L22 152Z" fill="black"/>
<path d="M12 152L12 112C12 56.7715 56.7715 12 112 12V32C67.8172 32 32 67.8172 32 112V152H12ZM423 22V152V22ZM423 152L22 152L423 152ZM12 112C12 56.7715 56.7715 12 112 12L423 12V32L112 32C67.8172 32 32 67.8172 32 112H12Z" fill="#1DF659" mask="url(#path-2-inside-1_332_120)"/>
</g>
<path d="M172.026 94.3945H148.002V96.6504H158.813V101.748H161.625V96.6504H172.026V94.3945ZM150.639 87.1875C150.624 90.4541 154.345 92.4902 159.985 92.4902C165.624 92.4902 169.316 90.4541 169.301 87.1875C169.316 83.9062 165.624 81.8701 159.985 81.8555C154.345 81.8701 150.624 83.9062 150.639 87.1875ZM151.02 106.934H169.36V104.648H153.803V99.2285H151.02V106.934ZM153.627 87.1875C153.598 85.2393 156.147 84.0967 159.985 84.082C163.837 84.0967 166.357 85.2393 166.371 87.1875C166.357 89.0771 163.837 90.2344 159.985 90.2344C156.147 90.2344 153.598 89.0771 153.627 87.1875ZM199.124 94.0137H188.489V91.2305H196.341V89.0039H180.902V84.6387H196.165V82.4414H178.148V91.2305H185.794V94.0137H175.159V96.2402H199.124V94.0137ZM178.001 102.715C178.001 105.762 181.414 107.476 187.112 107.49C192.767 107.476 196.151 105.762 196.165 102.715C196.151 99.668 192.767 97.9541 187.112 97.9395C181.414 97.9541 178.001 99.668 178.001 102.715ZM180.814 102.715C180.799 101.06 183.099 100.107 187.112 100.107C191.068 100.107 193.382 101.06 193.382 102.715C193.382 104.399 191.068 105.322 187.112 105.293C183.099 105.322 180.799 104.399 180.814 102.715ZM234.805 94.9805H210.782V97.207H221.622V102.041H224.376V97.207H234.805V94.9805ZM213.77 106.934H232.139V104.678H216.524V99.7559H213.77V106.934ZM213.946 92.666H231.641V82.0605H228.858V85.2539H216.7V82.0605H213.946V92.666ZM216.7 90.4395V87.334H228.858V90.4395H216.7ZM247.197 85.4297V82.5879H244.414V85.2832C244.399 89.165 242.026 92.6221 237.91 94.043L239.404 96.2988C242.465 95.127 244.692 92.8418 245.849 89.9268C246.977 92.5781 249.116 94.6875 252.002 95.7422L253.525 93.5156C249.57 92.1973 247.182 88.916 247.197 85.4297ZM242.041 100.371H257.041V107.49H259.824V98.1738H242.041V100.371ZM251.504 88.8281H257.041V96.7969H259.824V81.2402H257.041V86.543H251.504V88.8281ZM283.23 87.9199V83.4375H280.417V87.9199C280.417 92.9297 277.517 97.9541 273.386 99.7852L275.085 102.129C278.235 100.591 280.652 97.4268 281.867 93.5742C283.098 97.1631 285.486 100.107 288.503 101.543L290.173 99.3457C286.101 97.5439 283.2 92.71 283.23 87.9199ZM292.546 107.549H295.329V81.2402H292.546V107.549ZM309.889 85.957V85.2246H315.543V82.9688H301.334V85.2246H307.105V85.9277C307.091 89.5459 304.615 92.9443 300.514 94.3359L302.008 96.5039C305.084 95.4199 307.369 93.1787 308.512 90.3516C309.654 92.9297 311.837 94.9805 314.811 96.0059L316.217 93.8379C312.203 92.4902 309.874 89.3115 309.889 85.957ZM304 100.605H318.561V107.49H321.344V98.3496H304V100.605ZM318.561 97.0605H321.344V90.3223H325.152V87.9785H321.344V81.2402H318.561V97.0605ZM348.296 81.2402H345.542V107.49H348.296V94.1895H352.514V91.875H348.296V81.2402ZM327.7 87.627H343.257V85.3418H336.958V81.5918H334.175V85.3418H327.7V87.627ZM329.048 95.6543C329.048 99.2578 331.802 101.763 335.581 101.777C339.346 101.763 342.099 99.2578 342.114 95.6543C342.099 92.0801 339.346 89.5605 335.581 89.5605C331.802 89.5605 329.048 92.0801 329.048 95.6543ZM331.714 95.6543C331.699 93.4131 333.34 91.8604 335.581 91.8457C337.807 91.8604 339.433 93.4131 339.448 95.6543C339.433 97.9395 337.807 99.4629 335.581 99.4336C333.34 99.4629 331.699 97.9395 331.714 95.6543ZM376.8 81.2402H373.988V107.49H376.8V81.2402ZM355.238 100.459L356.703 102.715C365.712 98.3936 368.978 91.7432 368.978 84.0527H356.498V86.2793H366.166C365.624 92.4023 362.211 97.1338 355.238 100.459Z" fill="#1DF659"/>
<rect x="92" y="77" width="37" height="37" rx="18.5" fill="#1DF659"/>
<g clip-path="url(#clip0_332_120)">
<path d="M113.641 94.7471L109.603 90.7085L110.667 89.6439L116.524 95.5L110.667 101.356L109.603 100.291L113.641 96.2529H104.477V94.7471H113.641Z" fill="#080808"/>
</g>
<path d="M133 95.5C133 107.926 122.926 118 110.5 118C98.0736 118 88 107.926 88 95.5C88 83.0736 98.0736 73 110.5 73C122.926 73 133 83.0736 133 95.5Z" fill="#1DF659" fill-opacity="0.2"/>
<defs>
<filter id="filter0_b_332_120" x="-40" y="-40" width="503" height="232" filterUnits="userSpaceOnUse" color-interpolation-filters="sRGB">
<feFlood flood-opacity="0" result="BackgroundImageFix"/>
<feGaussianBlur in="BackgroundImageFix" stdDeviation="20"/>
<feComposite in2="SourceAlpha" operator="in" result="effect1_backgroundBlur_332_120"/>
<feBlend mode="normal" in="SourceGraphic" in2="effect1_backgroundBlur_332_120" result="shape"/>
</filter>
<filter id="filter1_b_332_120" x="-18" y="-18" width="481" height="210" filterUnits="userSpaceOnUse" color-interpolation-filters="sRGB">
<feFlood flood-opacity="0" result="BackgroundImageFix"/>
<feGaussianBlur in="BackgroundImageFix" stdDeviation="20"/>
<feComposite in2="SourceAlpha" operator="in" result="effect1_backgroundBlur_332_120"/>
<feBlend mode="normal" in="SourceGraphic" in2="effect1_backgroundBlur_332_120" result="shape"/>
</filter>
<clipPath id="clip0_332_120">
<rect width="18.0698" height="18.0698" fill="white" transform="translate(101.465 86.4651)"/>
</clipPath>
</defs>
</svg>
