<svg width="15" height="15" viewBox="0 0 15 15" fill="none" xmlns="http://www.w3.org/2000/svg">
<path d="M6.2209 0C5.12126 0 4.22156 0.825463 4.22156 1.83436H2.22223C1.1226 1.83436 0.2229 2.65982 0.2229 3.66872H14.2182C14.2182 2.65982 13.3185 1.83436 12.2189 1.83436H10.2196C10.2196 0.825463 9.31986 0 8.22023 0H6.2209ZM2.22223 5.50308V14.3264C2.22223 14.5281 2.38218 14.6749 2.60211 14.6749H11.859C12.0789 14.6749 12.2389 14.5281 12.2389 14.3264V5.50308H10.2396V11.9234C10.2396 12.437 9.7997 12.8405 9.23989 12.8405C8.68008 12.8405 8.24022 12.437 8.24022 11.9234V5.50308H6.24089V11.9234C6.24089 12.437 5.80104 12.8405 5.24122 12.8405C4.68141 12.8405 4.24156 12.437 4.24156 11.9234V5.50308H2.24223H2.22223Z" fill="#1DF659"/>
</svg>
