<svg width="225" height="139" viewBox="0 0 225 139" fill="none" xmlns="http://www.w3.org/2000/svg">
<path d="M113 83.3334H79.6667C77.375 83.3334 75.4125 82.5168 73.7792 80.8834C72.1458 79.2501 71.3306 77.289 71.3333 75.0001V25.0001C71.3333 22.7084 72.15 20.7459 73.7833 19.1126C75.4167 17.4793 77.3778 16.664 79.6667 16.6668H146.333C148.625 16.6668 150.588 17.4834 152.221 19.1168C153.854 20.7501 154.669 22.7112 154.667 25.0001V45.8334H146.333V25.0001H79.6667V75.0001H113V83.3334ZM102.583 68.7501V31.2501L131.75 50.0001L102.583 68.7501ZM137.375 95.8334L136.125 89.5834C135.292 89.2362 134.51 88.8709 133.779 88.4876C133.049 88.1042 132.303 87.6362 131.542 87.0834L125.5 88.9584L121.333 81.8751L126.125 77.7084C125.986 76.7362 125.917 75.8334 125.917 75.0001C125.917 74.1668 125.986 73.264 126.125 72.2918L121.333 68.1251L125.5 61.0418L131.542 62.9168C132.306 62.3612 133.051 61.8931 133.779 61.5126C134.507 61.132 135.289 60.7668 136.125 60.4168L137.375 54.1668H145.708L146.958 60.4168C147.792 60.764 148.574 61.1459 149.304 61.5626C150.035 61.9793 150.781 62.5001 151.542 63.1251L157.583 61.0418L161.75 68.3334L156.958 72.5001C157.097 73.3334 157.167 74.2015 157.167 75.1043C157.167 76.007 157.097 76.8751 156.958 77.7084L161.75 81.8751L157.583 88.9584L151.542 87.0834C150.778 87.639 150.032 88.1084 149.304 88.4918C148.576 88.8751 147.794 89.239 146.958 89.5834L145.708 95.8334H137.375ZM141.542 83.3334C143.833 83.3334 145.796 82.5168 147.429 80.8834C149.062 79.2501 149.878 77.289 149.875 75.0001C149.875 72.7084 149.058 70.7459 147.425 69.1126C145.792 67.4793 143.831 66.664 141.542 66.6668C139.25 66.6668 137.287 67.4834 135.654 69.1168C134.021 70.7501 133.206 72.7112 133.208 75.0001C133.208 77.2918 134.025 79.2543 135.658 80.8876C137.292 82.5209 139.253 83.3362 141.542 83.3334Z" fill="#777777"/>
<path d="M6.92383 122.613C6.9043 125.709 8.71094 128.883 11.3184 130.152L10.166 131.637C8.26172 130.641 6.78711 128.688 6.01562 126.354C5.23438 128.834 3.70117 130.934 1.70898 131.969L0.556641 130.465C3.24219 129.176 5.05859 125.816 5.06836 122.613V119.625H6.92383V122.613ZM12.627 135.66V118.16H14.4824V125.133H17.2949V126.715H14.4824V135.66H12.627ZM23.6191 121.812C23.6191 124.078 25.2891 126.207 27.9941 127.066L27.0371 128.512C25.0254 127.848 23.5117 126.471 22.7109 124.723C21.9297 126.627 20.3672 128.131 18.2871 128.863L17.3301 127.398C20.0547 126.471 21.7344 124.205 21.7441 121.812V121.051H17.8184V119.547H27.4668V121.051H23.6191V121.812ZM20.2012 135.289V129.742H22.0762V133.785H32.1738V135.289H20.2012ZM29.791 130.953V118.18H31.6465V130.953H29.791ZM36.5645 132.652L35.002 138.043H33.3418L34.377 132.652H36.5645ZM57.3965 126.676V128.16H41.4199V126.676H48.5098V124.82H43.4121V118.961H55.4238V120.426H45.248V123.336H55.541V124.82H50.3066V126.676H57.3965ZM43.3145 132.477C43.3145 130.445 45.5898 129.303 49.3887 129.293C53.1582 129.303 55.4141 130.445 55.4238 132.477C55.4141 134.508 53.1582 135.65 49.3887 135.66C45.5898 135.65 43.3145 134.508 43.3145 132.477ZM45.1895 132.477C45.1797 133.6 46.7129 134.215 49.3887 134.195C52.0254 134.215 53.5684 133.6 53.5684 132.477C53.5684 131.373 52.0254 130.738 49.3887 130.738C46.7129 130.738 45.1797 131.373 45.1895 132.477ZM62.5488 119.176C64.0039 119.166 65.2441 119.713 66.0645 120.621H70.4395V118.16H72.2949V128.492H70.4395V126.129H66.0547C65.2344 127.027 63.9941 127.564 62.5488 127.555C59.9121 127.564 57.9492 125.816 57.959 123.375C57.9492 120.904 59.9121 119.166 62.5488 119.176ZM59.7363 123.375C59.7266 124.908 60.9082 125.992 62.5488 125.973C64.1406 125.992 65.3223 124.908 65.3223 123.375C65.3223 121.803 64.1406 120.758 62.5488 120.777C60.9082 120.758 59.7266 121.803 59.7363 123.375ZM60.5176 132.262C60.5078 130.123 62.7734 128.873 66.4355 128.883C70.0781 128.873 72.3438 130.123 72.3535 132.262C72.3438 134.391 70.0781 135.631 66.4355 135.621C62.7734 135.631 60.5078 134.391 60.5176 132.262ZM62.334 132.262C62.3242 133.463 63.8672 134.166 66.4355 134.156C69.0039 134.166 70.5371 133.463 70.5371 132.262C70.5371 131.012 69.0039 130.318 66.4355 130.309C63.8672 130.318 62.3242 131.012 62.334 132.262ZM66.9141 122.105C67.0312 122.496 67.0996 122.926 67.0996 123.375C67.0996 123.805 67.0312 124.225 66.9141 124.605H70.4395V122.105H66.9141ZM80.0254 120.953C80.0156 123.248 81.6367 125.387 84.2441 126.246L83.248 127.711C81.334 127.037 79.8984 125.67 79.1367 123.941C78.375 125.904 76.8906 127.447 74.8496 128.199L73.8535 126.715C76.5879 125.748 78.1699 123.414 78.1895 120.797V119.078H80.0254V120.953ZM76.2168 132.379C76.2168 130.328 78.4531 129.127 82.0957 129.137C85.6895 129.127 87.8965 130.328 87.8965 132.379C87.8965 134.449 85.6895 135.631 82.0957 135.621C78.4531 135.631 76.2168 134.449 76.2168 132.379ZM78.0723 132.379C78.0625 133.531 79.5664 134.156 82.0957 134.176C84.6055 134.156 86.0898 133.531 86.0801 132.379C86.0898 131.266 84.6055 130.602 82.0957 130.602C79.5664 130.602 78.0625 131.266 78.0723 132.379ZM85.8848 128.727V118.16H87.7402V122.555H90.2793V124.117H87.7402V128.727H85.8848ZM98.2441 118.453C102.189 118.443 104.484 119.508 104.494 121.461C104.484 123.424 102.189 124.488 98.2441 124.488C94.2988 124.488 91.9844 123.424 91.9941 121.461C91.9844 119.508 94.2988 118.443 98.2441 118.453ZM90.2754 127.047V125.562H106.232V127.047H90.2754ZM92.1895 129.781V128.395H104.221V132.496H94.0254V134.059H104.709V135.484H92.209V131.148H102.385V129.781H92.1895ZM93.9277 121.461C93.918 122.545 95.4609 123.102 98.2441 123.102C101.047 123.102 102.59 122.545 102.58 121.461C102.59 120.426 101.047 119.82 98.2441 119.82C95.4609 119.82 93.918 120.426 93.9277 121.461ZM115.287 118.961C117.592 118.941 119.379 120.279 119.76 122.242H123.178V118.16H125.033V127.555H123.178V123.766H119.77C119.408 125.777 117.611 127.125 115.287 127.125C112.611 127.125 110.688 125.436 110.697 123.023C110.688 120.641 112.611 118.941 115.287 118.961ZM112.475 123.023C112.465 124.518 113.637 125.562 115.287 125.562C116.908 125.562 118.061 124.518 118.061 123.023C118.061 121.52 116.908 120.494 115.287 120.504C113.637 120.494 112.465 121.52 112.475 123.023ZM113.627 135.445V128.395H115.463V130.426H123.178V128.395H125.033V135.445H113.627ZM115.463 133.922H123.178V131.891H115.463V133.922ZM142.744 132.008V133.57H126.729V132.008H133.779V128.941H128.682V123.375H138.955V120.914H128.643V119.391H140.791V124.859H130.518V127.418H141.201V128.941H135.615V132.008H142.744ZM157.193 126.461V127.984H145.006V119.723H157.037V121.246H146.842V126.461H157.193ZM143.014 133.355V131.812H159.029V133.355H143.014ZM167.951 121.051V122.555H159.26V121.051H162.697V118.668H164.533V121.051H167.951ZM159.826 127.633C159.816 125.279 161.418 123.609 163.615 123.609C165.832 123.609 167.414 125.279 167.424 127.633C167.414 130.025 165.832 131.705 163.615 131.695C161.418 131.705 159.816 130.025 159.826 127.633ZM161.467 127.633C161.457 129.117 162.355 130.113 163.615 130.113C164.875 130.113 165.783 129.117 165.783 127.633C165.783 126.178 164.875 125.162 163.615 125.152C162.355 125.162 161.457 126.178 161.467 127.633ZM168.752 134.84V118.551H170.51V125.445H172.521V118.16H174.279V135.66H172.521V126.969H170.51V134.84H168.752ZM191.541 128.023V129.527H184.432V135.641H182.615V129.527H175.584V128.023H191.541ZM176.482 125.23C179.744 124.781 182.459 122.838 182.518 120.68H177.068V119.195H190.037V120.68H184.627C184.656 122.838 187.352 124.781 190.662 125.23L189.979 126.695C187.107 126.246 184.627 124.83 183.562 122.838C182.488 124.83 180.018 126.246 177.186 126.695L176.482 125.23ZM197.201 122.945C197.201 125.738 198.373 128.717 200.717 130.152L199.682 131.578C198.041 130.592 196.938 128.844 196.332 126.822C195.697 129.039 194.486 130.934 192.787 131.969L191.635 130.582C194.105 129.098 195.414 126.002 195.404 123.023V119.762H197.201V122.945ZM198.822 125.855V124.312H201.537V118.492H203.295V134.801H201.537V125.855H198.822ZM205.15 135.66V118.16H206.928V135.66H205.15ZM224.17 131.93V133.473H208.154V131.93H211.982V127.359C210.547 126.568 209.668 125.318 209.678 123.746C209.668 120.992 212.373 119.186 216.123 119.176C219.883 119.186 222.588 120.992 222.588 123.746C222.588 125.289 221.748 126.529 220.342 127.32V131.93H224.17ZM211.475 123.746C211.475 125.621 213.379 126.842 216.123 126.852C218.848 126.842 220.781 125.621 220.791 123.746C220.781 121.861 218.848 120.66 216.123 120.66C213.379 120.66 211.475 121.861 211.475 123.746ZM213.818 131.93H218.467V128.043C217.754 128.209 216.963 128.297 216.123 128.297C215.303 128.297 214.521 128.209 213.818 128.043V131.93Z" fill="#8D8D8D"/>
</svg>
